Coordinates
version=1
nRows=9
nColumns=36
inDegrees=yes

Units are S.I. units (second, meters, Newtons, ...)
If the header above contains a line with 'inDegrees', this indicates whether rotational values are in degrees (yes) or radians (no).

endheader
time	pelvis_tilt	pelvis_list	pelvis_rotation	pelvis_tx	pelvis_ty	pelvis_tz	hip_flexion_r	hip_adduction_r	hip_rotation_r	knee_angle_r	knee_angle_r_beta	ankle_angle_r	subtalar_angle_r	mtp_angle_r	hip_flexion_l	hip_adduction_l	hip_rotation_l	knee_angle_l	knee_angle_l_beta	ankle_angle_l	subtalar_angle_l	mtp_angle_l	lumbar_extension	lumbar_bending	lumbar_rotation	arm_flex_r	arm_add_r	arm_rot_r	elbow_flex_r	pro_sup_r	arm_flex_l	arm_add_l	arm_rot_l	elbow_flex_l	pro_sup_l
      0.00000000	     -2.61327769	     -0.92304832	      1.61091441	      0.37289336	      1.29154049	     -0.38162779	      5.35715380	      0.13367166	      1.36065683	      1.86659612	      0.03257825	      7.05735902	     -4.18496705	     -6.96008097	      0.06907262	      0.71604565	      2.49941076	      5.47681951	      0.09558853	     13.03190699	     -1.63489410	     -6.96008097	      2.58987466	     -0.41689706	     -0.62463066	      0.11563259	    -10.70086826	     -0.86347779	     19.66779399	     93.55133370	      0.34140910	    -11.87460177	      3.03674348	     20.16542709	     93.65634016
      0.01666670	     -2.77128731	     -0.64837356	      1.28630943	      0.37086221	      1.28979435	     -0.38220669	      4.99242947	     -0.09329536	      2.38522792	      1.16884003	      0.02040011	      8.03522076	     -2.47914340	     -7.12124979	      0.71176729	      1.03253715	      1.01521650	      6.00532130	      0.10481263	     12.13725203	     -2.04635812	     -7.12124979	      3.26135020	     -1.00929716	     -0.02191264	      0.99777413	    -10.86205272	      1.48255753	     17.48081672	     94.77220871	      0.86584710	    -11.86368552	      4.66096872	     18.87128232	     94.64376882
      0.03333330	     -1.89256414	     -0.65064927	      1.09505743	      0.36788015	      1.29132116	     -0.38274737	      4.01819737	     -0.13020886	      2.02989825	      0.90184300	      0.01574013	      7.50341441	     -1.22586151	     -7.29871337	     -0.26511846	      1.02924365	     -0.39848857	      5.42862018	      0.09474730	     10.92670033	     -2.09992617	     -7.29871337	      1.91332810	     -1.03211891	      0.33585128	      1.63791710	    -11.13603654	      0.71596897	     16.82045601	     99.08557258	      2.02446565	    -11.80462752	      4.38576143	     18.10761235	     99.30669291
      0.05000000	     -0.34379212	     -0.45649179	      0.87898500	      0.36539454	      1.29264179	     -0.38312540	      2.53099237	     -0.42063659	      1.28170271	      0.84705784	      0.01478395	      7.44054288	      0.29759713	     -7.38988844	     -1.70430742	      1.30796465	     -1.44881854	      5.26218626	      0.09184248	     10.32799646	     -2.35326498	     -7.38988844	     -0.22043334	     -1.23473868	      0.57649755	      2.67421177	    -11.56021263	      3.24616998	     15.98491209	     97.54039388	      3.35950151	    -11.92247452	      6.67731697	     17.28982353	     98.05165460
      0.06666670	      0.97437104	     -0.33786875	      0.60062771	      0.36342064	      1.29632860	     -0.38322135	      1.27768361	     -0.55230953	      1.17349899	      0.93026162	      0.01623613	      7.48234923	      0.86420800	     -7.47312155	     -2.90063852	      1.51852508	     -2.29009151	      5.35470690	      0.09345727	     10.07379116	     -2.41600800	     -7.47312155	     -2.14343019	     -1.41145248	      0.95545360	      3.25321812	    -11.57553643	      1.61635975	     16.05283186	    101.35819834	      4.04867278	    -11.82218610	      5.16768865	     17.52441409	    102.83653483
      0.08333330	      1.84719698	     -0.22396124	      0.17352352	      0.36217116	      1.29715485	     -0.38296988	      0.54838262	     -0.72475434	      1.11349424	      0.98406774	      0.01717522	      7.50838208	      1.24610998	     -7.48489423	     -3.68105644	      1.72590651	     -2.54814261	      5.51946561	      0.09633285	      9.96563786	     -2.71540830	     -7.48489423	     -3.49324228	     -1.59672118	      1.09322508	      3.91120483	    -11.86067898	      4.39070481	     15.68764266	     99.86711052	      4.73309649	    -12.12052661	      7.81977947	     17.14481513	    101.67239704
      0.10000000	      2.29742979	     -0.18573265	     -0.03333083	      0.36114384	      1.29717626	     -0.38278737	      0.14506427	     -0.79676489	      1.21267107	      1.01622936	      0.01773655	      7.29464908	      1.18142544	     -7.49376065	     -4.01543716	      1.79081001	     -2.73808499	      5.65309968	      0.09866520	      9.84067151	     -2.95568987	     -7.49376065	     -4.32848361	     -1.74200021	      1.14954348	      4.05662915	    -11.75165796	      2.89516872	     15.97872690	    102.46812481	      5.01696753	    -12.13630913	      6.59401181	     17.28591647	    104.95440751
      0.11666670	      2.49553266	     -0.16697246	     -0.18487427	      0.36043362	      1.29462218	     -0.38264228	     -0.03581744	     -0.82418966	      1.43019152	      0.98872429	      0.01725649	      7.06670162	      0.91001433	     -7.49727850	     -4.18184368	      1.83362293	     -2.80849253	      5.69065951	      0.09932075	      9.82033471	     -3.19733739	     -7.49727850	     -4.78832558	     -1.80945131	      1.04654892	      4.47874471	    -11.99687257	      6.02745724	     16.10995973	     99.60474569	      4.72643883	    -12.49731980	      8.89763728	     17.52207505	    102.77852676
      0.13333330	      2.53182032	     -0.13534228	     -0.17715292	      0.36020688	      1.29805963	     -0.38263758	     -0.06440051	     -0.85800432	      1.15295027	      0.90994824	      0.01588159	      7.06309204	      1.19668870	     -7.49894570	     -4.23437249	      1.87613231	     -2.79231007	      5.64049569	      0.09844522	      9.82562472	     -3.25370950	     -7.49894570	     -5.08089739	     -1.88717824	      0.62931097	      4.65985190	    -11.77509074	      4.08262646	     16.67465614	    102.76174379	      4.15660302	    -12.49115689	      6.82366703	     17.84888792	    106.27895604
